<svg width="33" height="32" viewBox="0 0 33 32" fill="none" xmlns="http://www.w3.org/2000/svg">
<path d="M10.4896 3.4122L8.8726 0L6.886 0.9416L8.503 4.3538L10.4896 3.4122ZM5.0908 5.8696L3.4738 2.4596L1.485 3.4012L3.102 6.8112L5.0908 5.8696ZM15.873 6.0478L14.3198 2.4772L12.3024 3.3528L13.8556 6.9234L15.873 6.0478ZM8.0652 7.5658C8.68659 7.30189 9.35909 7.18014 10.0336 7.20945C10.708 7.23876 11.3674 7.41838 11.9636 7.7352L15.6156 9.5524C17.3448 10.4742 18.0884 12.8172 16.6144 14.4716C15.9544 15.2922 14.9336 15.6376 14.0184 15.6376H12.3992C11.9768 15.6376 11.66 15.8004 11.5126 15.9896L11.4994 16.005L10.56 17.1644C9.8978 18.0026 8.8682 18.3524 7.9442 18.3524C5.9268 18.3524 4.29 16.4472 4.7102 14.4408L5.5176 10.5578L5.5396 10.4698C5.885 9.317 6.7474 8.107 8.0652 7.5658ZM3.6058 11.4356L1.9888 8.0212L0 8.9628L1.617 12.375L3.6058 11.4356ZM24.1274 17.0368L25.7444 13.6268L23.7578 12.6808L22.1408 16.093L24.1274 17.0368ZM29.5284 19.4942L31.1454 16.0842L29.1566 15.1404L27.5396 18.5526L29.5284 19.4942ZM18.7748 19.6064L20.328 16.0358L18.3106 15.158L16.7552 18.7286L18.7748 19.6064ZM20.5898 20.5854C21.1664 20.1644 21.8487 19.9121 22.5604 19.8565C23.2721 19.801 23.9853 19.9444 24.6202 20.2708C25.9204 20.8296 26.7674 22.044 27.0996 23.3178L27.1128 23.3706L27.9224 27.2514C28.3316 29.2094 26.8884 31.1652 24.6862 31.1652C23.7622 31.1652 22.7326 30.8132 22.0704 29.9772L21.1178 28.8024C20.9704 28.6132 20.6558 28.4482 20.2312 28.4482H18.6098C17.6858 28.4482 16.6518 28.0962 15.9896 27.2492C15.6955 26.8754 15.4869 26.4416 15.3785 25.9785C15.27 25.5154 15.2643 25.0341 15.3618 24.5686C15.4594 24.103 15.6577 23.6645 15.9429 23.2838C16.2281 22.9032 16.5932 22.5896 17.0126 22.3652L17.0412 22.3498L20.5898 20.5854ZM31.0112 25.0602L32.6304 21.6502L30.6416 20.7042L29.0246 24.1164L31.0112 25.0602Z" fill="black"/>
</svg>
