<svg width="35" height="35" viewBox="0 0 35 35" fill="none" xmlns="http://www.w3.org/2000/svg">
<path d="M2.91666 17.4999C2.91666 12.0005 2.91666 9.25013 4.62582 7.54242C6.33499 5.83471 9.08395 5.83325 14.5833 5.83325H20.4167C25.916 5.83325 28.6664 5.83325 30.3742 7.54242C32.0819 9.25159 32.0833 12.0005 32.0833 17.4999V20.4166C32.0833 25.916 32.0833 28.6664 30.3742 30.3741C28.665 32.0818 25.916 32.0833 20.4167 32.0833H14.5833C9.08395 32.0833 6.33353 32.0833 4.62582 30.3741C2.91811 28.6649 2.91666 25.916 2.91666 20.4166V17.4999Z" stroke="black" stroke-width="1.5"/>
<path d="M10.2083 5.83325V3.64575M24.7916 5.83325V3.64575M3.64581 13.1249H31.3541" stroke="black" stroke-width="1.5" stroke-linecap="round"/>
<path d="M26.25 24.7917C26.25 25.1784 26.0964 25.5494 25.8229 25.8229C25.5494 26.0964 25.1784 26.25 24.7917 26.25C24.4049 26.25 24.034 26.0964 23.7605 25.8229C23.487 25.5494 23.3333 25.1784 23.3333 24.7917C23.3333 24.4049 23.487 24.034 23.7605 23.7605C24.034 23.487 24.4049 23.3333 24.7917 23.3333C25.1784 23.3333 25.5494 23.487 25.8229 23.7605C26.0964 24.034 26.25 24.4049 26.25 24.7917ZM26.25 18.9583C26.25 19.3451 26.0964 19.716 25.8229 19.9895C25.5494 20.263 25.1784 20.4167 24.7917 20.4167C24.4049 20.4167 24.034 20.263 23.7605 19.9895C23.487 19.716 23.3333 19.3451 23.3333 18.9583C23.3333 18.5716 23.487 18.2006 23.7605 17.9271C24.034 17.6536 24.4049 17.5 24.7917 17.5C25.1784 17.5 25.5494 17.6536 25.8229 17.9271C26.0964 18.2006 26.25 18.5716 26.25 18.9583ZM18.9583 24.7917C18.9583 25.1784 18.8047 25.5494 18.5312 25.8229C18.2577 26.0964 17.8868 26.25 17.5 26.25C17.1132 26.25 16.7423 26.0964 16.4688 25.8229C16.1953 25.5494 16.0417 25.1784 16.0417 24.7917C16.0417 24.4049 16.1953 24.034 16.4688 23.7605C16.7423 23.487 17.1132 23.3333 17.5 23.3333C17.8868 23.3333 18.2577 23.487 18.5312 23.7605C18.8047 24.034 18.9583 24.4049 18.9583 24.7917ZM18.9583 18.9583C18.9583 19.3451 18.8047 19.716 18.5312 19.9895C18.2577 20.263 17.8868 20.4167 17.5 20.4167C17.1132 20.4167 16.7423 20.263 16.4688 19.9895C16.1953 19.716 16.0417 19.3451 16.0417 18.9583C16.0417 18.5716 16.1953 18.2006 16.4688 17.9271C16.7423 17.6536 17.1132 17.5 17.5 17.5C17.8868 17.5 18.2577 17.6536 18.5312 17.9271C18.8047 18.2006 18.9583 18.5716 18.9583 18.9583ZM11.6667 24.7917C11.6667 25.1784 11.513 25.5494 11.2395 25.8229C10.966 26.0964 10.5951 26.25 10.2083 26.25C9.82156 26.25 9.45063 26.0964 9.17714 25.8229C8.90365 25.5494 8.75 25.1784 8.75 24.7917C8.75 24.4049 8.90365 24.034 9.17714 23.7605C9.45063 23.487 9.82156 23.3333 10.2083 23.3333C10.5951 23.3333 10.966 23.487 11.2395 23.7605C11.513 24.034 11.6667 24.4049 11.6667 24.7917ZM11.6667 18.9583C11.6667 19.3451 11.513 19.716 11.2395 19.9895C10.966 20.263 10.5951 20.4167 10.2083 20.4167C9.82156 20.4167 9.45063 20.263 9.17714 19.9895C8.90365 19.716 8.75 19.3451 8.75 18.9583C8.75 18.5716 8.90365 18.2006 9.17714 17.9271C9.45063 17.6536 9.82156 17.5 10.2083 17.5C10.5951 17.5 10.966 17.6536 11.2395 17.9271C11.513 18.2006 11.6667 18.5716 11.6667 18.9583Z" fill="black"/>
</svg>
