<svg width="52" height="52" viewBox="0 0 52 52" fill="none" xmlns="http://www.w3.org/2000/svg">
<path fill-rule="evenodd" clip-rule="evenodd" d="M26 2.70825C23.2704 2.70825 20.6527 3.79255 18.7227 5.72261C16.7926 7.65267 15.7083 10.2704 15.7083 12.9999C15.7083 15.7294 16.7926 18.3472 18.7227 20.2772C20.6527 22.2073 23.2704 23.2916 26 23.2916C28.7295 23.2916 31.3472 22.2073 33.2773 20.2772C35.2073 18.3472 36.2916 15.7294 36.2916 12.9999C36.2916 10.2704 35.2073 7.65267 33.2773 5.72261C31.3472 3.79255 28.7295 2.70825 26 2.70825ZM18.9583 12.9999C18.9583 11.1324 19.7002 9.34128 21.0207 8.02071C22.3413 6.70014 24.1324 5.95825 26 5.95825C27.8675 5.95825 29.6586 6.70014 30.9792 8.02071C32.2997 9.34128 33.0416 11.1324 33.0416 12.9999C33.0416 14.8675 32.2997 16.6586 30.9792 17.9791C29.6586 19.2997 27.8675 20.0416 26 20.0416C24.1324 20.0416 22.3413 19.2997 21.0207 17.9791C19.7002 16.6586 18.9583 14.8675 18.9583 12.9999ZM26 26.5416C20.9885 26.5416 16.3691 27.6813 12.948 29.6053C9.57662 31.5033 7.04163 34.3763 7.04163 37.9166V38.1376C7.03946 40.6553 7.03729 43.8143 9.80846 46.0719C11.1713 47.1813 13.0801 47.9721 15.6585 48.4921C18.2411 49.0164 21.6103 49.2916 26 49.2916C30.3896 49.2916 33.7566 49.0164 36.3436 48.4921C38.922 47.9721 40.8286 47.1813 42.1936 46.0719C44.9648 43.8143 44.9605 40.6553 44.9583 38.1376V37.9166C44.9583 34.3763 42.4233 31.5033 39.0541 29.6053C35.6308 27.6813 31.0136 26.5416 26 26.5416ZM10.2916 37.9166C10.2916 36.0728 11.6393 34.0708 14.5405 32.4393C17.3918 30.8359 21.4391 29.7916 26.0021 29.7916C30.5608 29.7916 34.6081 30.8359 37.4595 32.4393C40.3628 34.0708 41.7083 36.0728 41.7083 37.9166C41.7083 40.7506 41.6216 42.3453 40.1396 43.5499C39.338 44.2043 37.9946 44.8434 35.698 45.3071C33.4078 45.7708 30.277 46.0416 26 46.0416C21.723 46.0416 18.59 45.7708 16.302 45.3071C14.0053 44.8434 12.662 44.2043 11.8603 43.5521C10.3783 42.3453 10.2916 40.7506 10.2916 37.9166Z" fill="black"/>
</svg>
